<svg id="Layer_1" data-name="Layer 1" xmlns="http://www.w3.org/2000/svg" viewBox="0 0 1942.84 404.98"><defs><style>.cls-1{fill:#282828;}.cls-2,.cls-4{font-size:6.78px;}.cls-10,.cls-11,.cls-13,.cls-2,.cls-3{fill:red;}.cls-11,.cls-12,.cls-13,.cls-14,.cls-2,.cls-4{font-family:AvenirNext-DemiBold, AvenirNext DemiBold;font-weight:700;}.cls-3,.cls-5{font-size:8px;font-family:AvenirNext-Regular, AvenirNext Regular;}.cls-6{fill:#1c1c1c;}.cls-14,.cls-15,.cls-18,.cls-7,.cls-9{fill:#fff;}.cls-8{fill:#1de9b6;}.cls-9{font-size:5.75px;font-family:AvenirLTStd-Medium, Avenir LT Std;}.cls-11,.cls-12{font-size:14.95px;}.cls-13,.cls-14{font-size:25.55px;}.cls-15,.cls-18{stroke:#000;}.cls-15,.cls-16,.cls-17,.cls-18{stroke-linecap:round;stroke-miterlimit:10;}.cls-15,.cls-16{stroke-width:3.39px;}.cls-16,.cls-17{fill:none;stroke:red;}</style></defs><title>hp-logo</title><rect class="cls-1" x="22.84" y="348.8" width="1920" height="56.18"/><text class="cls-2" transform="translate(160.07 112.74)">ube</text><text class="cls-3" transform="translate(148.01 89.31)">ube</text><text class="cls-4" transform="translate(141.45 112.74)">yper</text><text class="cls-5" transform="translate(148.33 80.76)">yper</text><path d="M100.61-348.8h18a3,3,0,0,1-3,3h-18A3,3,0,0,1,100.61-348.8Z" transform="translate(22.84 348.8)"/><path d="M100.61-340.3h18a3,3,0,0,1-3,3h-18A3,3,0,0,1,100.61-340.3Z" transform="translate(22.84 348.8)"/><path d="M100.61-331.8h18a3,3,0,0,1-3,3h-18A3,3,0,0,1,100.61-331.8Z" transform="translate(22.84 348.8)"/><path d="M205.64-313.62h18a3,3,0,0,1-3,3h-18A3,3,0,0,1,205.64-313.62Z" transform="translate(22.84 348.8)"/><path d="M240-313.62h18a3,3,0,0,1-3,3h-18A3,3,0,0,1,240-313.62Z" transform="translate(22.84 348.8)"/><path d="M214.64-319.63v18h0a3,3,0,0,1-3-3v-18h0A3,3,0,0,1,214.64-319.63Z" transform="translate(22.84 348.8)"/><path d="M171.9-318.49l12.73,12.72h0a3,3,0,0,1-4.24,0l-12.74-12.71h0A3,3,0,0,1,171.9-318.49Z" transform="translate(22.84 348.8)"/><path d="M182.51-316.37l-12.73,12.73h0a3,3,0,0,1,0-4.24l12.73-12.73h0A3,3,0,0,1,182.51-316.37Z" transform="translate(22.84 348.8)"/><circle class="cls-6" cx="159.02" cy="298.12" r="23.48"/><path class="cls-7" d="M141.48-51.68h-4.06v-7.94a4.33,4.33,0,0,0-4.33-4.32v12.26h-4.33v-13A4.32,4.32,0,0,0,124.44-69h0v17.31h-2.89c0,2.15,1.26,3.93,2.89,4.25V-43a4.32,4.32,0,0,0,4.32,4.32v-8.65h4.33V-38a4.33,4.33,0,0,0,4.33,4.33v-13.7h4.06a2,2,0,0,0,1.7-2.16A2,2,0,0,0,141.48-51.68Z" transform="translate(22.84 348.8)"/><path class="cls-8" d="M146.07-47.36c0-2.39-1.66-4.33-3.71-4.33h-13.6v4.33h4.33v14.73c0,1.6,1.94,2.9,4.33,2.9V-47.08a1.26,1.26,0,0,0,0-.28Z" transform="translate(22.84 348.8)"/><path class="cls-8" d="M142.06-36.12c0-.07,0-.15,0-.23v-.22h0a.88.88,0,0,1-.35.37,1,1,0,0,1-.54.15,1.08,1.08,0,0,1-.46-.08.87.87,0,0,1-.32-.24,1.06,1.06,0,0,1-.18-.35,1.56,1.56,0,0,1-.06-.44v-1.69h.54v1.51c0,.11,0,.22,0,.32a.79.79,0,0,0,.1.27.66.66,0,0,0,.19.18.57.57,0,0,0,.31.07.66.66,0,0,0,.53-.24,1,1,0,0,0,.2-.66v-1.45h.54v2.14c0,.08,0,.17,0,.28s0,.22,0,.31Z" transform="translate(22.84 348.8)"/><path class="cls-8" d="M143.56-36.55v.43H143v-4.35h.55v2h0a1.09,1.09,0,0,1,.39-.34,1.18,1.18,0,0,1,.58-.14,1.38,1.38,0,0,1,.55.11,1.32,1.32,0,0,1,.44.3,1.33,1.33,0,0,1,.27.46,1.47,1.47,0,0,1,.1.56,1.47,1.47,0,0,1-.1.56,1.24,1.24,0,0,1-.27.46,1.22,1.22,0,0,1-.43.31,1.32,1.32,0,0,1-.57.11,1.34,1.34,0,0,1-.56-.12,1.18,1.18,0,0,1-.42-.38Zm1.81-.94a1.13,1.13,0,0,0-.06-.36.9.9,0,0,0-.17-.32.93.93,0,0,0-.29-.22.93.93,0,0,0-.39-.08,1,1,0,0,0-.38.08,1.06,1.06,0,0,0-.29.22.92.92,0,0,0-.18.32.94.94,0,0,0-.07.37.94.94,0,0,0,.07.37.79.79,0,0,0,.18.31.89.89,0,0,0,.29.22,1,1,0,0,0,.38.08.93.93,0,0,0,.39-.08.93.93,0,0,0,.29-.22,1,1,0,0,0,.17-.32A1.15,1.15,0,0,0,145.37-37.49Z" transform="translate(22.84 348.8)"/><path class="cls-8" d="M149.28-37.51v.1a.28.28,0,0,1,0,.09H147.1a.89.89,0,0,0,.08.32.83.83,0,0,0,.19.26,1,1,0,0,0,.28.18,1,1,0,0,0,.34.06,1,1,0,0,0,.48-.12,1,1,0,0,0,.31-.29l.38.3a1.31,1.31,0,0,1-.51.43A1.59,1.59,0,0,1,148-36a1.48,1.48,0,0,1-.57-.1,1.44,1.44,0,0,1-.46-.29,1.19,1.19,0,0,1-.3-.45,1.59,1.59,0,0,1-.11-.59,1.58,1.58,0,0,1,.11-.58,1.31,1.31,0,0,1,.3-.46,1.29,1.29,0,0,1,.45-.29,1.26,1.26,0,0,1,.55-.11,1.38,1.38,0,0,1,.55.1,1.07,1.07,0,0,1,.41.28,1.3,1.3,0,0,1,.27.44A1.87,1.87,0,0,1,149.28-37.51Zm-.55-.21a1.55,1.55,0,0,0-.06-.31.72.72,0,0,0-.14-.24.67.67,0,0,0-.24-.16.67.67,0,0,0-.33-.07.71.71,0,0,0-.32.07.81.81,0,0,0-.27.16,1.08,1.08,0,0,0-.18.24.85.85,0,0,0-.09.31Z" transform="translate(22.84 348.8)"/><text class="cls-9" transform="translate(162.52 306.8)">yper</text><path d="M26.94-254.74H12v-15.85a5.19,5.19,0,0,0-5.09-5.29h0v21.14H3.51c0,2.64,1.47,4.82,3.39,5.21v5.36A5.19,5.19,0,0,0,12-238.89v-10.57h15c1.11,0,2-1.18,2-2.64S28.05-254.74,26.94-254.74Z" transform="translate(22.84 348.8)"/><path d="M17.08-238v-31.7h0a5.19,5.19,0,0,1,5.09,5.28v31.71h0A5.19,5.19,0,0,1,17.08-238Z" transform="translate(22.84 348.8)"/><path class="cls-10" d="M32.34-249.46c0-2.92-2-5.28-4.36-5.28H12v5.28h5.09v18c0,2,2.28,3.53,5.09,3.53v-21.19a2,2,0,0,0,0-.34Z" transform="translate(22.84 348.8)"/><path d="M-11-210.81h-2.41v-4.81A2.6,2.6,0,0,0-16-218.25v7.44h-2.57v-7.87a2.6,2.6,0,0,0-2.57-2.63h0v10.5h-1.71a2.51,2.51,0,0,0,1.71,2.59v2.66a2.59,2.59,0,0,0,2.57,2.62v-5.25H-16v5.69a2.59,2.59,0,0,0,2.57,2.62v-8.31H-11a1.18,1.18,0,0,0,1-1.31A1.19,1.19,0,0,0-11-210.81Z" transform="translate(22.84 348.8)"/><path class="cls-10" d="M33.44-213.23a2.47,2.47,0,0,0-2.2-2.66H23.17v2.66h2.56v9.09c0,1,1.15,1.78,2.57,1.78v-10.7a1,1,0,0,0,0-.17Z" transform="translate(22.84 348.8)"/><text class="cls-11" transform="translate(52.31 145.44)">ube</text><text class="cls-12" transform="translate(13.93 145.46)">yper</text><path class="cls-7" d="M41.61,26.51H37.49V18.29A4.44,4.44,0,0,0,33.1,13.8V26.51H28.71V13.06a4.44,4.44,0,0,0-4.39-4.49h0V26.51H21.39c0,2.24,1.27,4.09,2.93,4.43v4.55A4.44,4.44,0,0,0,28.71,40V31H33.1v9.72a4.44,4.44,0,0,0,4.39,4.49V31h4.12a2,2,0,0,0,1.73-2.24A2,2,0,0,0,41.61,26.51Z" transform="translate(22.84 348.8)"/><path class="cls-10" d="M117.6,22.38c0-2.51-1.68-4.55-3.76-4.55H100v4.55h4.39V37.91c0,1.69,2,3.05,4.39,3.05V22.68c0-.1,0-.2,0-.3Z" transform="translate(22.84 348.8)"/><text class="cls-13" transform="translate(133.66 388.06)">ube</text><text class="cls-14" transform="translate(68.05 388.08)">yper</text><line class="cls-15" x1="136.21" y1="73.26" x2="144.76" y2="73.26"/><line class="cls-15" x1="144.88" y1="61.27" x2="144.88" y2="85.25"/><line class="cls-16" x1="153.55" y1="73.26" x2="136.21" y2="73.26"/><line class="cls-16" x1="144.88" y1="87.94" x2="144.88" y2="74.76"/><line class="cls-17" x1="160.28" y1="108.02" x2="155.16" y2="108.02"/><line class="cls-17" x1="157.72" y1="112.36" x2="157.72" y2="108.47"/><line class="cls-15" x1="136.21" y1="54.28" x2="136.21" y2="82.41"/><line class="cls-18" x1="136.69" y1="109.2" x2="139.72" y2="109.2"/><line class="cls-18" x1="139.76" y1="105.66" x2="139.76" y2="112.74"/><line class="cls-18" x1="136.62" y1="103.59" x2="136.62" y2="112.74"/></svg>