<svg xmlns="http://www.w3.org/2000/svg" viewBox="0 0 46.14 46.14"><defs><style>.cls-1{fill:#1c1c1c;}.cls-2,.cls-4{fill:#fff;}.cls-3{fill:#1de9b6;}.cls-4{font-size:5.75px;font-family:AvenirLTStd-Medium, Avenir LT Std;}</style></defs><title>Fichier 1</title><g id="Calque_2" data-name="Calque 2"><g id="Layer_1" data-name="Layer 1"><circle class="cls-1" cx="23.07" cy="23.07" r="23.07"/><path class="cls-2" d="M29.29,22H25.23V14.07a4.32,4.32,0,0,0-4.32-4.33V22H16.58V9a4.33,4.33,0,0,0-4.33-4.33h0V22H9.37c0,2.16,1.25,3.93,2.88,4.25v4.4A4.32,4.32,0,0,0,16.58,35V26.32h4.33V35.7A4.32,4.32,0,0,0,25.23,40V26.32h4.06A2,2,0,0,0,31,24.16,2,2,0,0,0,29.29,22Z"/><path class="cls-3" d="M33.88,26.32c0-2.39-1.66-4.32-3.7-4.32H16.58v4.32h4.33V41.06c0,1.59,1.93,2.89,4.32,2.89V26.6c0-.09,0-.18,0-.28Z"/><path class="cls-3" d="M29.88,37.56a1.64,1.64,0,0,1,0-.23c0-.09,0-.16,0-.22h0a.83.83,0,0,1-.35.37,1,1,0,0,1-.54.16,1.08,1.08,0,0,1-.46-.09.92.92,0,0,1-.31-.24A1.08,1.08,0,0,1,28,37a1.54,1.54,0,0,1-.06-.43V34.84h.54v1.5a1.66,1.66,0,0,0,0,.32,1.07,1.07,0,0,0,.09.27.55.55,0,0,0,.19.18.63.63,0,0,0,.32.07.64.64,0,0,0,.52-.24,1,1,0,0,0,.21-.66V34.84h.54v2.42c0,.11,0,.21,0,.3Z"/><path class="cls-3" d="M31.37,37.13v.43h-.52V33.21h.54v2h0a1.27,1.27,0,0,1,.38-.34,1.22,1.22,0,0,1,.59-.14,1.42,1.42,0,0,1,.55.11,1.19,1.19,0,0,1,.43.3,1.67,1.67,0,0,1,.28.46,1.74,1.74,0,0,1,.1.56,1.8,1.8,0,0,1-.1.57,1.53,1.53,0,0,1-.28.46,1.19,1.19,0,0,1-.43.3,1.25,1.25,0,0,1-.56.12,1.35,1.35,0,0,1-.56-.13,1.13,1.13,0,0,1-.43-.38Zm1.81-.93a1.14,1.14,0,0,0,0-.37,1,1,0,0,0-.18-.32.74.74,0,0,0-.28-.21.8.8,0,0,0-.39-.08.79.79,0,0,0-.38.08.86.86,0,0,0-.29.21,1.29,1.29,0,0,0-.19.32,1.15,1.15,0,0,0-.06.37,1.1,1.1,0,0,0,.06.37,1.13,1.13,0,0,0,.19.32.86.86,0,0,0,.29.21.92.92,0,0,0,.38.08.93.93,0,0,0,.39-.08.88.88,0,0,0,.28-.22.92.92,0,0,0,.18-.32A1.12,1.12,0,0,0,33.18,36.2Z"/><path class="cls-3" d="M37.09,36.18v.18H34.92a.72.72,0,0,0,.08.32.83.83,0,0,0,.19.26.75.75,0,0,0,.28.18.93.93,0,0,0,.34.06.89.89,0,0,0,.47-.12,1,1,0,0,0,.32-.29l.38.3a1.32,1.32,0,0,1-.52.43,1.51,1.51,0,0,1-.65.14,1.58,1.58,0,0,1-.58-.11,1.17,1.17,0,0,1-.45-.29,1.19,1.19,0,0,1-.3-.45,1.41,1.41,0,0,1-.11-.59,1.57,1.57,0,0,1,.1-.58,1.47,1.47,0,0,1,.3-.46,1.51,1.51,0,0,1,.45-.29,1.47,1.47,0,0,1,.56-.11,1.33,1.33,0,0,1,.54.1,1,1,0,0,1,.42.28,1.24,1.24,0,0,1,.26.45A1.78,1.78,0,0,1,37.09,36.18ZM36.54,36a1.06,1.06,0,0,0,0-.31.75.75,0,0,0-.15-.24.63.63,0,0,0-.23-.16.94.94,0,0,0-.66,0,.76.76,0,0,0-.26.16.88.88,0,0,0-.19.24,1.09,1.09,0,0,0-.08.31Z"/><text class="cls-4" transform="translate(27.49 31.67)">yper</text></g></g></svg>